<?xml version="1.0" standalone="no"?>
<!DOCTYPE svg PUBLIC "-//W3C//DTD SVG 20010904//EN"
 "http://www.w3.org/TR/2001/REC-SVG-20010904/DTD/svg10.dtd">
<svg version="1.0" xmlns="http://www.w3.org/2000/svg"
 width="300.000000pt" height="300.000000pt" viewBox="0 0 300.000000 300.000000"
 preserveAspectRatio="xMidYMid meet">
<metadata>
Created by potrace 1.10, written by Peter Selinger 2001-2011
</metadata>
<g transform="translate(0.000000,300.000000) scale(0.100000,-0.100000)"
fill="#000000" stroke="none">
<path d="M1214 2279 c-28 -10 -68 -34 -90 -53 -34 -29 -48 -34 -109 -38 -107
-8 -203 -63 -251 -143 -18 -32 -38 -50 -68 -64 -55 -24 -121 -91 -136 -137 -7
-21 -10 -60 -7 -90 5 -44 2 -55 -15 -71 -31 -27 -58 -92 -58 -141 0 -24 -7
-57 -16 -73 -24 -48 -28 -119 -10 -181 19 -67 80 -148 129 -171 20 -10 40 -29
47 -47 20 -49 92 -107 156 -126 56 -16 144 -15 202 2 16 4 22 2 22 -8 0 -27
74 -101 124 -124 121 -56 255 -10 319 110 22 41 22 43 22 661 l0 620 -24 34
c-44 62 -139 78 -237 40z m189 -59 l27 -30 0 -312 c0 -286 -1 -311 -16 -290
-50 71 -194 67 -234 -7 -14 -27 -22 -26 -59 5 -39 32 -49 80 -26 124 30 58 -1
83 -35 28 -42 -68 -15 -169 53 -205 18 -9 37 -23 43 -31 14 -19 44 -9 44 16 0
24 48 68 83 76 37 9 94 -19 113 -55 8 -16 19 -29 25 -29 6 0 9 -93 7 -274 l-3
-274 -30 -43 c-61 -85 -167 -109 -258 -56 -85 50 -113 119 -82 200 9 25 14 51
10 57 -9 14 31 59 63 71 12 5 22 16 22 24 0 29 -31 28 -75 -3 -37 -26 -45 -28
-56 -16 -6 8 -17 14 -25 14 -25 0 -25 -21 0 -51 31 -36 31 -42 9 -113 -17 -55
-17 -55 -69 -66 -87 -18 -189 13 -240 72 l-25 31 51 17 c60 20 64 24 56 46 -4
12 -12 14 -29 9 -78 -25 -121 -18 -173 28 -77 67 -105 186 -64 276 11 24 20
63 20 88 0 46 17 90 44 112 13 11 21 9 46 -12 16 -14 42 -28 58 -32 21 -4 31
-14 38 -38 6 -22 15 -32 29 -32 20 0 23 15 10 47 -5 13 2 21 29 32 34 14 47
38 27 50 -5 3 -25 -1 -45 -9 -65 -27 -149 15 -171 86 -27 83 92 209 198 209
38 0 87 -18 87 -32 0 -4 9 -8 20 -8 29 0 26 36 -5 56 -13 9 -43 21 -65 28
l-40 12 38 38 c43 46 117 82 185 92 l49 7 -18 -34 c-16 -32 -24 -122 -13 -159
2 -9 -10 -21 -33 -33 -39 -19 -49 -43 -23 -53 8 -3 30 3 48 14 l33 19 36 -33
c42 -38 106 -58 154 -49 70 13 51 50 -24 46 -115 -6 -187 120 -132 234 23 49
35 64 80 97 86 64 185 72 233 18z"/>
<path d="M1240 2120 c0 -17 5 -39 12 -49 10 -16 7 -23 -20 -46 -36 -30 -40
-43 -16 -52 9 -3 26 4 40 18 19 17 37 24 67 24 34 0 42 3 42 19 0 12 -12 22
-35 30 -29 9 -37 18 -44 49 -12 48 -46 53 -46 7z"/>
<path d="M847 1904 c-13 -13 -7 -75 9 -111 22 -45 74 -84 124 -90 35 -5 40 -3
40 14 0 14 -11 23 -39 32 -22 6 -51 25 -65 42 -24 28 -31 45 -38 93 -3 21 -20
31 -31 20z"/>
<path d="M865 1510 c-11 -17 5 -88 25 -112 17 -22 17 -23 -12 -50 -55 -51
-153 -26 -184 47 -18 44 -19 41 17 54 21 7 30 16 27 28 -3 15 -14 18 -58 18
-30 0 -63 4 -72 9 -13 6 -20 3 -24 -8 -8 -20 13 -46 36 -46 13 0 19 -11 24
-42 9 -57 75 -123 133 -132 29 -5 43 -13 46 -27 8 -30 35 -22 51 14 28 65 86
98 173 98 59 0 115 -22 142 -57 10 -13 26 -24 35 -24 20 0 21 33 1 50 -8 7
-15 18 -15 25 0 19 58 65 81 65 23 0 36 27 21 42 -16 16 -79 -9 -114 -46 -30
-32 -32 -32 -67 -20 -43 16 -120 18 -154 5 -33 -13 -59 15 -66 72 -6 41 -31
62 -46 37z"/>
<path d="M1260 1120 c-8 -5 -25 -10 -38 -10 -37 0 -36 -24 3 -63 19 -19 36
-42 36 -51 1 -9 2 -22 3 -28 0 -7 11 -14 24 -16 18 -3 22 1 22 25 0 15 -9 43
-21 62 -19 31 -19 34 -3 46 10 7 15 19 11 29 -7 18 -16 20 -37 6z"/>
<path d="M1604 2286 c-17 -8 -42 -29 -55 -47 l-24 -34 0 -610 c0 -606 0 -610
22 -650 38 -71 99 -115 158 -115 19 0 31 -13 60 -65 20 -36 40 -67 45 -70 4
-3 34 0 66 6 95 17 97 17 91 49 -6 27 -6 27 59 33 86 6 181 53 229 111 34 42
65 111 65 146 0 11 10 20 29 23 38 8 109 64 143 112 64 95 81 246 39 360 -16
41 -23 87 -25 145 -2 69 -7 95 -28 135 -31 60 -112 139 -169 164 -29 13 -46
30 -61 60 -47 95 -174 171 -293 176 -48 2 -70 9 -110 34 -81 51 -174 66 -241
37z m139 -40 c181 -54 250 -263 116 -354 -26 -18 -45 -22 -86 -21 -29 1 -56 0
-59 -4 -14 -14 7 -36 39 -42 49 -10 113 11 157 51 l39 35 30 -22 c31 -22 61
-20 61 5 0 8 -15 23 -34 34 -33 20 -33 21 -33 88 1 53 -4 79 -21 111 -12 23
-22 44 -22 46 0 9 107 -15 146 -33 55 -24 120 -90 144 -146 11 -24 25 -44 32
-44 7 0 31 -9 53 -21 93 -49 155 -143 155 -236 0 -65 -20 -107 -63 -133 -74
-45 -147 -12 -172 78 -7 24 -45 31 -45 8 0 -7 -13 -16 -30 -19 -42 -9 -80 -36
-80 -58 0 -28 18 -32 46 -10 15 12 38 21 51 21 42 0 93 -77 63 -95 -15 -9 -12
-42 5 -49 15 -5 45 28 45 52 0 9 9 11 34 6 44 -8 96 9 126 41 13 14 27 25 30
25 13 0 40 -115 40 -166 0 -97 -48 -203 -114 -255 -63 -49 -158 -53 -217 -10
-37 28 -57 26 -65 -4 -3 -14 -20 -37 -36 -51 -24 -20 -40 -24 -72 -22 -40 3
-41 4 -44 45 -3 37 1 44 27 64 35 26 42 59 12 59 -10 0 -24 -7 -31 -15 -11
-13 -17 -11 -47 15 -38 34 -46 36 -62 16 -9 -11 -4 -19 24 -41 34 -25 36 -29
29 -70 -4 -30 -1 -53 9 -73 18 -38 5 -74 -47 -124 -90 -88 -231 -72 -283 32
-22 42 -23 55 -23 297 0 152 4 253 9 253 6 0 18 13 27 30 23 38 75 63 114 55
37 -8 78 -49 82 -83 4 -33 37 -43 44 -14 3 10 21 26 40 35 39 19 74 70 74 108
0 22 6 27 51 38 33 9 64 26 90 51 l40 38 48 -21 c27 -11 56 -17 66 -14 26 11
13 40 -20 47 -56 12 -74 30 -77 80 -4 60 -31 63 -38 5 -8 -55 -43 -109 -84
-129 -48 -23 -74 -20 -101 12 -19 21 -26 24 -36 15 -10 -10 -9 -20 4 -48 26
-54 22 -82 -17 -121 -39 -39 -51 -42 -66 -13 -40 74 -184 78 -234 7 -15 -21
-16 4 -16 288 0 303 1 312 21 338 37 47 76 55 152 32z m448 -1175 c48 -22 46
-23 -49 -36 l-44 -6 24 30 c12 17 24 30 24 30 1 1 21 -8 45 -18z m89 -40 c0
-44 -142 -81 -255 -66 -44 5 -55 10 -53 23 2 13 22 16 112 20 60 2 125 10 145
17 45 17 51 17 51 6z m-44 -90 c-27 -29 -102 -46 -202 -45 -106 2 -121 7 -96
33 15 16 25 18 80 10 65 -9 176 1 209 19 25 14 30 6 9 -17z m-171 -69 c58 2
101 1 97 -3 -23 -20 -101 -39 -161 -39 -68 0 -131 15 -131 30 0 18 34 28 62
18 16 -6 76 -9 133 -6z m-204 -54 c27 -13 51 -31 55 -41 7 -23 7 -23 -42 -32
-40 -6 -42 -5 -67 37 -18 30 -22 45 -14 50 16 10 14 11 68 -14z"/>
<path d="M1716 2098 c-10 -13 -27 -22 -43 -23 -21 0 -29 -6 -31 -22 -3 -20 1
-23 30 -23 25 0 42 -8 63 -30 16 -16 34 -30 41 -30 25 0 22 29 -6 56 -22 23
-26 33 -18 47 10 20 4 47 -11 47 -5 0 -17 -10 -25 -22z"/>
<path d="M1987 1503 c-4 -3 -7 -16 -7 -27 0 -34 -28 -66 -58 -66 -15 0 -40 -7
-56 -15 -26 -14 -30 -14 -42 2 -7 10 -14 21 -14 25 0 12 -90 50 -105 44 -8 -3
-15 -15 -15 -26 0 -15 7 -20 25 -20 14 0 39 -13 57 -29 31 -28 32 -30 15 -48
-21 -24 -23 -63 -2 -63 8 0 22 11 31 25 23 35 92 65 149 65 72 0 131 -32 168
-92 32 -52 46 -59 54 -29 3 13 20 23 51 31 78 19 156 117 102 128 -9 1 -23
-11 -33 -28 -40 -67 -119 -79 -178 -26 -21 19 -56 40 -79 47 -31 9 -39 16 -35
28 4 9 9 31 12 49 5 27 3 32 -14 32 -11 0 -23 -3 -26 -7z"/>
<path d="M1697 1183 c-13 -13 -7 -38 13 -51 19 -12 19 -13 -6 -49 -17 -26 -24
-48 -22 -73 4 -44 30 -48 38 -5 10 47 28 74 55 81 30 7 41 33 17 41 -9 4 -30
19 -46 35 -31 29 -38 32 -49 21z"/>
</g>
</svg>
